<mxfile host="app.diagrams.net" modified="2023-11-26T14:52:41.016Z" agent="Mozilla/5.0 (Macintosh; Intel Mac OS X 10_15_7) AppleWebKit/537.36 (KHTML, like Gecko) Chrome/119.0.0.0 Safari/537.36" etag="2KGd73QXsfscs6FbWthe" version="22.1.4" type="device">
  <diagram name="Page-1" id="2YBvvXClWsGukQMizWep">
    <mxGraphModel dx="1914" dy="346" grid="1" gridSize="10" guides="1" tooltips="1" connect="1" arrows="1" fold="1" page="1" pageScale="1" pageWidth="850" pageHeight="1100" math="0" shadow="0">
      <root>
        <mxCell id="0" />
        <mxCell id="1" parent="0" />
        <mxCell id="IBTfnvwqLwfOXLfZtC5K-10" style="edgeStyle=orthogonalEdgeStyle;rounded=0;orthogonalLoop=1;jettySize=auto;html=1;exitX=0.5;exitY=1;exitDx=0;exitDy=0;endArrow=none;endFill=0;dashed=1;" edge="1" parent="1" source="IBTfnvwqLwfOXLfZtC5K-8">
          <mxGeometry relative="1" as="geometry">
            <mxPoint x="90" y="760" as="targetPoint" />
          </mxGeometry>
        </mxCell>
        <mxCell id="IBTfnvwqLwfOXLfZtC5K-8" value="User" style="rounded=1;whiteSpace=wrap;html=1;" vertex="1" parent="1">
          <mxGeometry x="50" y="50" width="80" height="40" as="geometry" />
        </mxCell>
        <mxCell id="IBTfnvwqLwfOXLfZtC5K-12" style="edgeStyle=orthogonalEdgeStyle;rounded=0;orthogonalLoop=1;jettySize=auto;html=1;exitX=0.5;exitY=1;exitDx=0;exitDy=0;endArrow=none;endFill=0;dashed=1;" edge="1" parent="1" source="IBTfnvwqLwfOXLfZtC5K-13">
          <mxGeometry relative="1" as="geometry">
            <mxPoint x="210" y="760" as="targetPoint" />
          </mxGeometry>
        </mxCell>
        <mxCell id="IBTfnvwqLwfOXLfZtC5K-13" value="Authorization Server" style="rounded=1;whiteSpace=wrap;html=1;" vertex="1" parent="1">
          <mxGeometry x="170" y="50" width="80" height="40" as="geometry" />
        </mxCell>
        <mxCell id="IBTfnvwqLwfOXLfZtC5K-14" value="" style="endArrow=classic;html=1;rounded=0;" edge="1" parent="1">
          <mxGeometry width="50" height="50" relative="1" as="geometry">
            <mxPoint x="-266" y="170" as="sourcePoint" />
            <mxPoint x="-186" y="170" as="targetPoint" />
          </mxGeometry>
        </mxCell>
        <mxCell id="IBTfnvwqLwfOXLfZtC5K-15" value="" style="endArrow=classic;html=1;rounded=0;" edge="1" parent="1">
          <mxGeometry width="50" height="50" relative="1" as="geometry">
            <mxPoint x="90" y="121" as="sourcePoint" />
            <mxPoint x="210" y="121" as="targetPoint" />
          </mxGeometry>
        </mxCell>
        <mxCell id="IBTfnvwqLwfOXLfZtC5K-17" value="&lt;font style=&quot;font-size: 8px;&quot;&gt;Request token&lt;/font&gt;" style="text;html=1;strokeColor=none;fillColor=none;align=center;verticalAlign=middle;whiteSpace=wrap;rounded=0;" vertex="1" parent="1">
          <mxGeometry x="110" y="101" width="80" height="30" as="geometry" />
        </mxCell>
        <mxCell id="IBTfnvwqLwfOXLfZtC5K-18" value="" style="endArrow=none;html=1;rounded=0;startArrow=classic;startFill=1;endFill=0;" edge="1" parent="1">
          <mxGeometry width="50" height="50" relative="1" as="geometry">
            <mxPoint x="-261" y="250" as="sourcePoint" />
            <mxPoint x="-181" y="250" as="targetPoint" />
          </mxGeometry>
        </mxCell>
        <mxCell id="IBTfnvwqLwfOXLfZtC5K-19" value="" style="endArrow=classic;html=1;rounded=0;dashed=1;" edge="1" parent="1">
          <mxGeometry width="50" height="50" relative="1" as="geometry">
            <mxPoint x="-266" y="200" as="sourcePoint" />
            <mxPoint x="-186" y="200" as="targetPoint" />
          </mxGeometry>
        </mxCell>
        <mxCell id="IBTfnvwqLwfOXLfZtC5K-20" value="" style="endArrow=none;html=1;rounded=0;startArrow=classic;startFill=1;endFill=0;dashed=1;" edge="1" parent="1">
          <mxGeometry width="50" height="50" relative="1" as="geometry">
            <mxPoint x="-261" y="280" as="sourcePoint" />
            <mxPoint x="-181" y="280" as="targetPoint" />
          </mxGeometry>
        </mxCell>
        <mxCell id="IBTfnvwqLwfOXLfZtC5K-21" value="" style="endArrow=none;html=1;rounded=0;startArrow=classic;startFill=1;endFill=0;dashed=1;" edge="1" parent="1">
          <mxGeometry width="50" height="50" relative="1" as="geometry">
            <mxPoint x="90" y="199" as="sourcePoint" />
            <mxPoint x="210" y="199" as="targetPoint" />
          </mxGeometry>
        </mxCell>
        <mxCell id="IBTfnvwqLwfOXLfZtC5K-22" value="&lt;font style=&quot;font-size: 8px;&quot;&gt;Retrieves token&lt;/font&gt;" style="text;html=1;strokeColor=none;fillColor=none;align=center;verticalAlign=middle;whiteSpace=wrap;rounded=0;" vertex="1" parent="1">
          <mxGeometry x="-261" y="110" width="80" height="30" as="geometry" />
        </mxCell>
        <mxCell id="IBTfnvwqLwfOXLfZtC5K-23" value="&lt;font style=&quot;font-size: 8px;&quot;&gt;Send token&lt;/font&gt;" style="text;html=1;strokeColor=none;fillColor=none;align=center;verticalAlign=middle;whiteSpace=wrap;rounded=0;" vertex="1" parent="1">
          <mxGeometry x="110" y="179" width="80" height="30" as="geometry" />
        </mxCell>
        <mxCell id="IBTfnvwqLwfOXLfZtC5K-24" value="" style="endArrow=classic;html=1;rounded=0;edgeStyle=orthogonalEdgeStyle;curved=1;" edge="1" parent="1">
          <mxGeometry width="50" height="50" relative="1" as="geometry">
            <mxPoint x="-246" y="330" as="sourcePoint" />
            <mxPoint x="-246" y="380" as="targetPoint" />
            <Array as="points">
              <mxPoint x="-196" y="330" />
              <mxPoint x="-196" y="380" />
            </Array>
          </mxGeometry>
        </mxCell>
        <mxCell id="IBTfnvwqLwfOXLfZtC5K-25" value="" style="endArrow=classic;html=1;rounded=0;edgeStyle=orthogonalEdgeStyle;curved=1;" edge="1" parent="1">
          <mxGeometry width="50" height="50" relative="1" as="geometry">
            <mxPoint x="210" y="140" as="sourcePoint" />
            <mxPoint x="210" y="190" as="targetPoint" />
            <Array as="points">
              <mxPoint x="260" y="140" />
              <mxPoint x="260" y="190" />
            </Array>
          </mxGeometry>
        </mxCell>
        <mxCell id="IBTfnvwqLwfOXLfZtC5K-26" value="&lt;font style=&quot;font-size: 8px;&quot;&gt;Check client credentials&lt;/font&gt;" style="text;html=1;strokeColor=none;fillColor=none;align=center;verticalAlign=middle;whiteSpace=wrap;rounded=0;" vertex="1" parent="1">
          <mxGeometry x="230" y="149" width="80" height="30" as="geometry" />
        </mxCell>
        <mxCell id="IBTfnvwqLwfOXLfZtC5K-29" style="edgeStyle=orthogonalEdgeStyle;rounded=0;orthogonalLoop=1;jettySize=auto;html=1;exitX=0.5;exitY=1;exitDx=0;exitDy=0;endArrow=none;endFill=0;dashed=1;" edge="1" parent="1" source="IBTfnvwqLwfOXLfZtC5K-30">
          <mxGeometry relative="1" as="geometry">
            <mxPoint x="-336.1538461538462" y="735.1025641025641" as="targetPoint" />
          </mxGeometry>
        </mxCell>
        <mxCell id="IBTfnvwqLwfOXLfZtC5K-30" value="User" style="rounded=1;whiteSpace=wrap;html=1;" vertex="1" parent="1">
          <mxGeometry x="-376" y="101" width="80" height="40" as="geometry" />
        </mxCell>
        <mxCell id="IBTfnvwqLwfOXLfZtC5K-31" style="edgeStyle=orthogonalEdgeStyle;rounded=0;orthogonalLoop=1;jettySize=auto;html=1;exitX=0.5;exitY=1;exitDx=0;exitDy=0;endArrow=none;endFill=0;dashed=1;" edge="1" parent="1" source="IBTfnvwqLwfOXLfZtC5K-32">
          <mxGeometry relative="1" as="geometry">
            <mxPoint x="330" y="760" as="targetPoint" />
          </mxGeometry>
        </mxCell>
        <mxCell id="IBTfnvwqLwfOXLfZtC5K-32" value="User Api" style="rounded=1;whiteSpace=wrap;html=1;" vertex="1" parent="1">
          <mxGeometry x="290" y="50" width="80" height="40" as="geometry" />
        </mxCell>
        <mxCell id="IBTfnvwqLwfOXLfZtC5K-33" value="Create user flow" style="shape=umlActor;verticalLabelPosition=bottom;verticalAlign=top;html=1;outlineConnect=0;" vertex="1" parent="1">
          <mxGeometry x="20" y="119" width="30" height="60" as="geometry" />
        </mxCell>
        <mxCell id="IBTfnvwqLwfOXLfZtC5K-34" value="" style="endArrow=classic;html=1;rounded=0;" edge="1" parent="1">
          <mxGeometry width="50" height="50" relative="1" as="geometry">
            <mxPoint x="90" y="230" as="sourcePoint" />
            <mxPoint x="330" y="230.26" as="targetPoint" />
          </mxGeometry>
        </mxCell>
        <mxCell id="IBTfnvwqLwfOXLfZtC5K-35" value="&lt;font style=&quot;font-size: 8px;&quot;&gt;Creates user&lt;/font&gt;" style="text;html=1;strokeColor=none;fillColor=none;align=center;verticalAlign=middle;whiteSpace=wrap;rounded=0;" vertex="1" parent="1">
          <mxGeometry x="110" y="209" width="80" height="30" as="geometry" />
        </mxCell>
        <mxCell id="IBTfnvwqLwfOXLfZtC5K-36" value="" style="endArrow=classic;html=1;rounded=0;edgeStyle=orthogonalEdgeStyle;curved=1;" edge="1" parent="1">
          <mxGeometry width="50" height="50" relative="1" as="geometry">
            <mxPoint x="330" y="248" as="sourcePoint" />
            <mxPoint x="330" y="298" as="targetPoint" />
            <Array as="points">
              <mxPoint x="380" y="248" />
              <mxPoint x="380" y="298" />
            </Array>
          </mxGeometry>
        </mxCell>
        <mxCell id="IBTfnvwqLwfOXLfZtC5K-37" value="&lt;font style=&quot;font-size: 8px;&quot;&gt;Save user on database&lt;/font&gt;" style="text;html=1;strokeColor=none;fillColor=none;align=center;verticalAlign=middle;whiteSpace=wrap;rounded=0;" vertex="1" parent="1">
          <mxGeometry x="360" y="258" width="80" height="30" as="geometry" />
        </mxCell>
        <mxCell id="IBTfnvwqLwfOXLfZtC5K-38" value="" style="endArrow=none;html=1;rounded=0;startArrow=classic;startFill=1;endFill=0;dashed=1;" edge="1" parent="1">
          <mxGeometry width="50" height="50" relative="1" as="geometry">
            <mxPoint x="90" y="319" as="sourcePoint" />
            <mxPoint x="330" y="319" as="targetPoint" />
          </mxGeometry>
        </mxCell>
        <mxCell id="IBTfnvwqLwfOXLfZtC5K-39" value="&lt;font style=&quot;font-size: 8px;&quot;&gt;User is created&lt;/font&gt;" style="text;html=1;strokeColor=none;fillColor=none;align=center;verticalAlign=middle;whiteSpace=wrap;rounded=0;" vertex="1" parent="1">
          <mxGeometry x="230" y="299" width="80" height="30" as="geometry" />
        </mxCell>
        <mxCell id="IBTfnvwqLwfOXLfZtC5K-40" value="" style="endArrow=classic;html=1;rounded=0;" edge="1" parent="1">
          <mxGeometry width="50" height="50" relative="1" as="geometry">
            <mxPoint x="90" y="361" as="sourcePoint" />
            <mxPoint x="210" y="361" as="targetPoint" />
          </mxGeometry>
        </mxCell>
        <mxCell id="IBTfnvwqLwfOXLfZtC5K-41" value="&lt;font style=&quot;font-size: 8px;&quot;&gt;Request token&lt;/font&gt;" style="text;html=1;strokeColor=none;fillColor=none;align=center;verticalAlign=middle;whiteSpace=wrap;rounded=0;" vertex="1" parent="1">
          <mxGeometry x="110" y="341" width="80" height="30" as="geometry" />
        </mxCell>
        <mxCell id="IBTfnvwqLwfOXLfZtC5K-45" value="" style="endArrow=none;html=1;rounded=0;startArrow=classic;startFill=1;endFill=0;dashed=1;" edge="1" parent="1">
          <mxGeometry width="50" height="50" relative="1" as="geometry">
            <mxPoint x="90" y="442" as="sourcePoint" />
            <mxPoint x="210" y="442" as="targetPoint" />
          </mxGeometry>
        </mxCell>
        <mxCell id="IBTfnvwqLwfOXLfZtC5K-46" value="&lt;font style=&quot;font-size: 8px;&quot;&gt;Send token&lt;/font&gt;" style="text;html=1;strokeColor=none;fillColor=none;align=center;verticalAlign=middle;whiteSpace=wrap;rounded=0;" vertex="1" parent="1">
          <mxGeometry x="110" y="422" width="80" height="30" as="geometry" />
        </mxCell>
        <mxCell id="IBTfnvwqLwfOXLfZtC5K-47" value="" style="endArrow=classic;html=1;rounded=0;edgeStyle=orthogonalEdgeStyle;curved=1;" edge="1" parent="1">
          <mxGeometry width="50" height="50" relative="1" as="geometry">
            <mxPoint x="210" y="377" as="sourcePoint" />
            <mxPoint x="210" y="427" as="targetPoint" />
            <Array as="points">
              <mxPoint x="260" y="377" />
              <mxPoint x="260" y="427" />
            </Array>
          </mxGeometry>
        </mxCell>
        <mxCell id="IBTfnvwqLwfOXLfZtC5K-48" value="&lt;font style=&quot;font-size: 8px;&quot;&gt;Check client credentials&lt;/font&gt;" style="text;html=1;strokeColor=none;fillColor=none;align=center;verticalAlign=middle;whiteSpace=wrap;rounded=0;" vertex="1" parent="1">
          <mxGeometry x="230" y="386" width="80" height="30" as="geometry" />
        </mxCell>
        <mxCell id="IBTfnvwqLwfOXLfZtC5K-51" style="edgeStyle=orthogonalEdgeStyle;rounded=0;orthogonalLoop=1;jettySize=auto;html=1;exitX=0.5;exitY=1;exitDx=0;exitDy=0;endArrow=none;endFill=0;dashed=1;" edge="1" parent="1" source="IBTfnvwqLwfOXLfZtC5K-52">
          <mxGeometry relative="1" as="geometry">
            <mxPoint x="480" y="760" as="targetPoint" />
          </mxGeometry>
        </mxCell>
        <mxCell id="IBTfnvwqLwfOXLfZtC5K-52" value="Order Api" style="rounded=1;whiteSpace=wrap;html=1;" vertex="1" parent="1">
          <mxGeometry x="440" y="50" width="80" height="40" as="geometry" />
        </mxCell>
        <mxCell id="IBTfnvwqLwfOXLfZtC5K-53" value="" style="endArrow=classic;html=1;rounded=0;" edge="1" parent="1">
          <mxGeometry width="50" height="50" relative="1" as="geometry">
            <mxPoint x="90" y="478" as="sourcePoint" />
            <mxPoint x="480" y="478" as="targetPoint" />
          </mxGeometry>
        </mxCell>
        <mxCell id="IBTfnvwqLwfOXLfZtC5K-54" value="&lt;font style=&quot;font-size: 8px;&quot;&gt;Create order&lt;/font&gt;" style="text;html=1;strokeColor=none;fillColor=none;align=center;verticalAlign=middle;whiteSpace=wrap;rounded=0;" vertex="1" parent="1">
          <mxGeometry x="240" y="458" width="80" height="30" as="geometry" />
        </mxCell>
        <mxCell id="IBTfnvwqLwfOXLfZtC5K-55" value="" style="endArrow=none;html=1;rounded=0;startArrow=classic;startFill=1;endFill=0;" edge="1" parent="1">
          <mxGeometry width="50" height="50" relative="1" as="geometry">
            <mxPoint x="330" y="510" as="sourcePoint" />
            <mxPoint x="480" y="510" as="targetPoint" />
          </mxGeometry>
        </mxCell>
        <mxCell id="IBTfnvwqLwfOXLfZtC5K-56" value="&lt;font style=&quot;font-size: 8px;&quot;&gt;Check user&lt;/font&gt;" style="text;html=1;strokeColor=none;fillColor=none;align=center;verticalAlign=middle;whiteSpace=wrap;rounded=0;" vertex="1" parent="1">
          <mxGeometry x="360" y="488" width="80" height="30" as="geometry" />
        </mxCell>
        <mxCell id="IBTfnvwqLwfOXLfZtC5K-58" value="" style="endArrow=classic;html=1;rounded=0;dashed=1;" edge="1" parent="1">
          <mxGeometry width="50" height="50" relative="1" as="geometry">
            <mxPoint x="330" y="540" as="sourcePoint" />
            <mxPoint x="480" y="540" as="targetPoint" />
          </mxGeometry>
        </mxCell>
        <mxCell id="IBTfnvwqLwfOXLfZtC5K-59" value="&lt;font style=&quot;font-size: 8px;&quot;&gt;Retrieve user&lt;/font&gt;" style="text;html=1;strokeColor=none;fillColor=none;align=center;verticalAlign=middle;whiteSpace=wrap;rounded=0;" vertex="1" parent="1">
          <mxGeometry x="360" y="518" width="80" height="30" as="geometry" />
        </mxCell>
        <mxCell id="IBTfnvwqLwfOXLfZtC5K-60" style="edgeStyle=orthogonalEdgeStyle;rounded=0;orthogonalLoop=1;jettySize=auto;html=1;exitX=0.5;exitY=1;exitDx=0;exitDy=0;endArrow=none;endFill=0;dashed=1;" edge="1" parent="1" source="IBTfnvwqLwfOXLfZtC5K-61">
          <mxGeometry relative="1" as="geometry">
            <mxPoint x="630" y="760" as="targetPoint" />
          </mxGeometry>
        </mxCell>
        <mxCell id="IBTfnvwqLwfOXLfZtC5K-61" value="Redis" style="rounded=1;whiteSpace=wrap;html=1;" vertex="1" parent="1">
          <mxGeometry x="590" y="50" width="80" height="40" as="geometry" />
        </mxCell>
        <mxCell id="IBTfnvwqLwfOXLfZtC5K-62" value="" style="endArrow=classic;html=1;rounded=0;" edge="1" parent="1">
          <mxGeometry width="50" height="50" relative="1" as="geometry">
            <mxPoint x="480" y="580" as="sourcePoint" />
            <mxPoint x="630" y="580" as="targetPoint" />
          </mxGeometry>
        </mxCell>
        <mxCell id="IBTfnvwqLwfOXLfZtC5K-63" value="&lt;font style=&quot;font-size: 8px;&quot;&gt;Check cache&lt;/font&gt;" style="text;html=1;strokeColor=none;fillColor=none;align=center;verticalAlign=middle;whiteSpace=wrap;rounded=0;" vertex="1" parent="1">
          <mxGeometry x="520" y="560" width="80" height="30" as="geometry" />
        </mxCell>
        <mxCell id="IBTfnvwqLwfOXLfZtC5K-65" value="" style="endArrow=none;html=1;rounded=0;startArrow=classic;startFill=1;endFill=0;dashed=1;" edge="1" parent="1">
          <mxGeometry width="50" height="50" relative="1" as="geometry">
            <mxPoint x="480" y="620" as="sourcePoint" />
            <mxPoint x="630" y="620" as="targetPoint" />
          </mxGeometry>
        </mxCell>
        <mxCell id="IBTfnvwqLwfOXLfZtC5K-66" value="&lt;font style=&quot;font-size: 8px;&quot;&gt;Retrieve cache&lt;/font&gt;" style="text;html=1;strokeColor=none;fillColor=none;align=center;verticalAlign=middle;whiteSpace=wrap;rounded=0;" vertex="1" parent="1">
          <mxGeometry x="520" y="600" width="80" height="30" as="geometry" />
        </mxCell>
        <mxCell id="IBTfnvwqLwfOXLfZtC5K-67" value="" style="endArrow=classic;html=1;rounded=0;edgeStyle=orthogonalEdgeStyle;curved=1;" edge="1" parent="1">
          <mxGeometry width="50" height="50" relative="1" as="geometry">
            <mxPoint x="480" y="650" as="sourcePoint" />
            <mxPoint x="480" y="700" as="targetPoint" />
            <Array as="points">
              <mxPoint x="530" y="650" />
              <mxPoint x="530" y="700" />
            </Array>
          </mxGeometry>
        </mxCell>
        <mxCell id="IBTfnvwqLwfOXLfZtC5K-68" value="&lt;font style=&quot;font-size: 8px;&quot;&gt;Save order&lt;/font&gt;" style="text;html=1;strokeColor=none;fillColor=none;align=center;verticalAlign=middle;whiteSpace=wrap;rounded=0;" vertex="1" parent="1">
          <mxGeometry x="510" y="660" width="80" height="30" as="geometry" />
        </mxCell>
        <mxCell id="IBTfnvwqLwfOXLfZtC5K-69" value="" style="endArrow=none;html=1;rounded=0;startArrow=classic;startFill=1;endFill=0;dashed=1;" edge="1" parent="1">
          <mxGeometry width="50" height="50" relative="1" as="geometry">
            <mxPoint x="90" y="730" as="sourcePoint" />
            <mxPoint x="480" y="730" as="targetPoint" />
          </mxGeometry>
        </mxCell>
        <mxCell id="IBTfnvwqLwfOXLfZtC5K-70" value="&lt;font style=&quot;font-size: 8px;&quot;&gt;Return order&lt;/font&gt;" style="text;html=1;strokeColor=none;fillColor=none;align=center;verticalAlign=middle;whiteSpace=wrap;rounded=0;" vertex="1" parent="1">
          <mxGeometry x="240" y="710" width="80" height="30" as="geometry" />
        </mxCell>
        <mxCell id="IBTfnvwqLwfOXLfZtC5K-76" value="Create order flow" style="shape=umlActor;verticalLabelPosition=bottom;verticalAlign=top;html=1;outlineConnect=0;" vertex="1" parent="1">
          <mxGeometry x="20" y="371" width="30" height="60" as="geometry" />
        </mxCell>
      </root>
    </mxGraphModel>
  </diagram>
</mxfile>
